<svg id="svg" version="1.1" width="400" height="400" viewBox="0 0 400 400" xmlns="http://www.w3.org/2000/svg" xmlns:xlink="http://www.w3.org/1999/xlink" ><g id="svgg"><path id="path0" d="M192.125 37.754 C 151.700 41.676,119.642 72.018,113.328 112.334 L 112.656 116.625 112.564 139.563 L 112.471 162.500 93.736 162.500 L 75.000 162.500 75.000 262.500 L 75.000 362.500 200.000 362.500 L 325.000 362.500 325.000 262.500 L 325.000 162.500 306.264 162.500 L 287.529 162.500 287.433 139.563 C 287.323 113.018,287.252 112.141,284.373 101.635 C 273.332 61.350,233.467 33.744,192.125 37.754 M209.089 63.271 C 233.856 66.833,254.195 85.026,260.387 109.158 C 262.314 116.668,262.325 116.836,262.435 140.938 L 262.534 162.500 200.000 162.500 L 137.466 162.500 137.565 140.938 C 137.675 116.836,137.686 116.668,139.613 109.158 C 147.487 78.471,177.401 58.713,209.089 63.271 M300.000 262.500 L 300.000 337.500 200.000 337.500 L 100.000 337.500 100.000 262.500 L 100.000 187.500 200.000 187.500 L 300.000 187.500 300.000 262.500 M194.375 200.348 C 176.744 203.260,162.517 219.145,162.501 235.938 L 162.500 237.500 174.985 237.500 L 187.469 237.500 187.629 236.313 C 188.823 227.452,197.628 222.579,205.500 226.422 C 214.644 230.886,214.644 244.121,205.500 248.576 C 202.964 249.812,201.465 249.996,193.938 249.998 L 187.500 250.000 187.500 268.750 L 187.500 287.500 199.996 287.500 L 212.493 287.500 212.559 280.118 L 212.625 272.736 214.615 271.871 C 240.140 260.777,245.427 228.031,224.706 209.369 C 216.824 202.271,204.652 198.650,194.375 200.348 M187.500 312.500 L 187.500 325.000 200.000 325.000 L 212.500 325.000 212.500 312.500 L 212.500 300.000 200.000 300.000 L 187.500 300.000 187.500 312.500 " stroke="none" fill="#000000" fill-rule="evenodd"></path><path id="path1" d="M192.125 37.754 C 151.700 41.676,119.642 72.018,113.328 112.334 L 112.656 116.625 112.564 139.563 L 112.471 162.500 93.736 162.500 L 75.000 162.500 75.000 262.500 L 75.000 362.500 200.000 362.500 L 325.000 362.500 325.000 262.500 L 325.000 162.500 306.264 162.500 L 287.529 162.500 287.433 139.563 C 287.323 113.018,287.252 112.141,284.373 101.635 C 273.332 61.350,233.467 33.744,192.125 37.754 M209.089 63.271 C 233.856 66.833,254.195 85.026,260.387 109.158 C 262.314 116.668,262.325 116.836,262.435 140.938 L 262.534 162.500 200.000 162.500 L 137.466 162.500 137.565 140.938 C 137.675 116.836,137.686 116.668,139.613 109.158 C 147.487 78.471,177.401 58.713,209.089 63.271 M300.000 262.500 L 300.000 337.500 200.000 337.500 L 100.000 337.500 100.000 262.500 L 100.000 187.500 200.000 187.500 L 300.000 187.500 300.000 262.500 M194.375 200.348 C 176.744 203.260,162.517 219.145,162.501 235.938 L 162.500 237.500 174.985 237.500 L 187.469 237.500 187.629 236.313 C 188.823 227.452,197.628 222.579,205.500 226.422 C 214.644 230.886,214.644 244.121,205.500 248.576 C 202.964 249.812,201.465 249.996,193.938 249.998 L 187.500 250.000 187.500 268.750 L 187.500 287.500 199.996 287.500 L 212.493 287.500 212.559 280.118 L 212.625 272.736 214.615 271.871 C 240.140 260.777,245.427 228.031,224.706 209.369 C 216.824 202.271,204.652 198.650,194.375 200.348 M187.500 312.500 L 187.500 325.000 200.000 325.000 L 212.500 325.000 212.500 312.500 L 212.500 300.000 200.000 300.000 L 187.500 300.000 187.500 312.500 " stroke="none" fill="#000000" fill-rule="evenodd"></path><path id="path2" d="M192.125 37.754 C 151.700 41.676,119.642 72.018,113.328 112.334 L 112.656 116.625 112.564 139.563 L 112.471 162.500 93.736 162.500 L 75.000 162.500 75.000 262.500 L 75.000 362.500 200.000 362.500 L 325.000 362.500 325.000 262.500 L 325.000 162.500 306.264 162.500 L 287.529 162.500 287.433 139.563 C 287.323 113.018,287.252 112.141,284.373 101.635 C 273.332 61.350,233.467 33.744,192.125 37.754 M209.089 63.271 C 233.856 66.833,254.195 85.026,260.387 109.158 C 262.314 116.668,262.325 116.836,262.435 140.938 L 262.534 162.500 200.000 162.500 L 137.466 162.500 137.565 140.938 C 137.675 116.836,137.686 116.668,139.613 109.158 C 147.487 78.471,177.401 58.713,209.089 63.271 M300.000 262.500 L 300.000 337.500 200.000 337.500 L 100.000 337.500 100.000 262.500 L 100.000 187.500 200.000 187.500 L 300.000 187.500 300.000 262.500 M194.375 200.348 C 176.744 203.260,162.517 219.145,162.501 235.938 L 162.500 237.500 174.985 237.500 L 187.469 237.500 187.629 236.313 C 188.823 227.452,197.628 222.579,205.500 226.422 C 214.644 230.886,214.644 244.121,205.500 248.576 C 202.964 249.812,201.465 249.996,193.938 249.998 L 187.500 250.000 187.500 268.750 L 187.500 287.500 199.996 287.500 L 212.493 287.500 212.559 280.118 L 212.625 272.736 214.615 271.871 C 240.140 260.777,245.427 228.031,224.706 209.369 C 216.824 202.271,204.652 198.650,194.375 200.348 M187.500 312.500 L 187.500 325.000 200.000 325.000 L 212.500 325.000 212.500 312.500 L 212.500 300.000 200.000 300.000 L 187.500 300.000 187.500 312.500 " stroke="none" fill="#000000" fill-rule="evenodd"></path><path id="path3" d="M192.125 37.754 C 151.700 41.676,119.642 72.018,113.328 112.334 L 112.656 116.625 112.564 139.563 L 112.471 162.500 93.736 162.500 L 75.000 162.500 75.000 262.500 L 75.000 362.500 200.000 362.500 L 325.000 362.500 325.000 262.500 L 325.000 162.500 306.264 162.500 L 287.529 162.500 287.433 139.563 C 287.323 113.018,287.252 112.141,284.373 101.635 C 273.332 61.350,233.467 33.744,192.125 37.754 M209.089 63.271 C 233.856 66.833,254.195 85.026,260.387 109.158 C 262.314 116.668,262.325 116.836,262.435 140.938 L 262.534 162.500 200.000 162.500 L 137.466 162.500 137.565 140.938 C 137.675 116.836,137.686 116.668,139.613 109.158 C 147.487 78.471,177.401 58.713,209.089 63.271 M300.000 262.500 L 300.000 337.500 200.000 337.500 L 100.000 337.500 100.000 262.500 L 100.000 187.500 200.000 187.500 L 300.000 187.500 300.000 262.500 M194.375 200.348 C 176.744 203.260,162.517 219.145,162.501 235.938 L 162.500 237.500 174.985 237.500 L 187.469 237.500 187.629 236.313 C 188.823 227.452,197.628 222.579,205.500 226.422 C 214.644 230.886,214.644 244.121,205.500 248.576 C 202.964 249.812,201.465 249.996,193.938 249.998 L 187.500 250.000 187.500 268.750 L 187.500 287.500 199.996 287.500 L 212.493 287.500 212.559 280.118 L 212.625 272.736 214.615 271.871 C 240.140 260.777,245.427 228.031,224.706 209.369 C 216.824 202.271,204.652 198.650,194.375 200.348 M187.500 312.500 L 187.500 325.000 200.000 325.000 L 212.500 325.000 212.500 312.500 L 212.500 300.000 200.000 300.000 L 187.500 300.000 187.500 312.500 " stroke="none" fill="#000000" fill-rule="evenodd"></path><path id="path4" d="M192.125 37.754 C 151.700 41.676,119.642 72.018,113.328 112.334 L 112.656 116.625 112.564 139.563 L 112.471 162.500 93.736 162.500 L 75.000 162.500 75.000 262.500 L 75.000 362.500 200.000 362.500 L 325.000 362.500 325.000 262.500 L 325.000 162.500 306.264 162.500 L 287.529 162.500 287.433 139.563 C 287.323 113.018,287.252 112.141,284.373 101.635 C 273.332 61.350,233.467 33.744,192.125 37.754 M209.089 63.271 C 233.856 66.833,254.195 85.026,260.387 109.158 C 262.314 116.668,262.325 116.836,262.435 140.938 L 262.534 162.500 200.000 162.500 L 137.466 162.500 137.565 140.938 C 137.675 116.836,137.686 116.668,139.613 109.158 C 147.487 78.471,177.401 58.713,209.089 63.271 M300.000 262.500 L 300.000 337.500 200.000 337.500 L 100.000 337.500 100.000 262.500 L 100.000 187.500 200.000 187.500 L 300.000 187.500 300.000 262.500 M194.375 200.348 C 176.744 203.260,162.517 219.145,162.501 235.938 L 162.500 237.500 174.985 237.500 L 187.469 237.500 187.629 236.313 C 188.823 227.452,197.628 222.579,205.500 226.422 C 214.644 230.886,214.644 244.121,205.500 248.576 C 202.964 249.812,201.465 249.996,193.938 249.998 L 187.500 250.000 187.500 268.750 L 187.500 287.500 199.996 287.500 L 212.493 287.500 212.559 280.118 L 212.625 272.736 214.615 271.871 C 240.140 260.777,245.427 228.031,224.706 209.369 C 216.824 202.271,204.652 198.650,194.375 200.348 M187.500 312.500 L 187.500 325.000 200.000 325.000 L 212.500 325.000 212.500 312.500 L 212.500 300.000 200.000 300.000 L 187.500 300.000 187.500 312.500 " stroke="none" fill="#000000" fill-rule="evenodd"></path></g></svg>