<svg id="svg" version="1.1" width="400" height="400" viewBox="0 0 400 400" xmlns="http://www.w3.org/2000/svg" xmlns:xlink="http://www.w3.org/1999/xlink" ><g id="svgg"><path id="path0" d="M125.000 100.000 L 125.000 162.500 137.500 162.500 L 150.000 162.500 150.000 112.500 L 150.000 62.500 237.500 62.500 L 325.000 62.500 325.000 200.000 L 325.000 337.500 237.500 337.500 L 150.000 337.500 150.000 287.500 L 150.000 237.500 137.500 237.500 L 125.000 237.500 125.000 300.000 L 125.000 362.500 237.500 362.500 L 350.000 362.500 350.000 200.000 L 350.000 37.500 237.500 37.500 L 125.000 37.500 125.000 100.000 M195.187 149.937 L 186.250 158.874 200.562 173.187 L 214.873 187.500 138.687 187.500 L 62.500 187.500 62.500 200.000 L 62.500 212.500 138.687 212.500 L 214.873 212.500 200.561 226.814 L 186.250 241.127 195.260 250.126 L 204.270 259.125 233.091 230.250 C 264.334 198.948,263.024 200.333,262.360 199.313 C 261.888 198.589,204.518 141.000,204.269 141.000 C 204.189 141.000,200.103 145.022,195.187 149.937 " stroke="none" fill="#000000" fill-rule="evenodd"></path><path id="path1" d="M125.000 100.000 L 125.000 162.500 137.500 162.500 L 150.000 162.500 150.000 112.500 L 150.000 62.500 237.500 62.500 L 325.000 62.500 325.000 200.000 L 325.000 337.500 237.500 337.500 L 150.000 337.500 150.000 287.500 L 150.000 237.500 137.500 237.500 L 125.000 237.500 125.000 300.000 L 125.000 362.500 237.500 362.500 L 350.000 362.500 350.000 200.000 L 350.000 37.500 237.500 37.500 L 125.000 37.500 125.000 100.000 M195.187 149.937 L 186.250 158.874 200.562 173.187 L 214.873 187.500 138.687 187.500 L 62.500 187.500 62.500 200.000 L 62.500 212.500 138.687 212.500 L 214.873 212.500 200.561 226.814 L 186.250 241.127 195.260 250.126 L 204.270 259.125 233.091 230.250 C 264.334 198.948,263.024 200.333,262.360 199.313 C 261.888 198.589,204.518 141.000,204.269 141.000 C 204.189 141.000,200.103 145.022,195.187 149.937 " stroke="none" fill="#000000" fill-rule="evenodd"></path><path id="path2" d="M125.000 100.000 L 125.000 162.500 137.500 162.500 L 150.000 162.500 150.000 112.500 L 150.000 62.500 237.500 62.500 L 325.000 62.500 325.000 200.000 L 325.000 337.500 237.500 337.500 L 150.000 337.500 150.000 287.500 L 150.000 237.500 137.500 237.500 L 125.000 237.500 125.000 300.000 L 125.000 362.500 237.500 362.500 L 350.000 362.500 350.000 200.000 L 350.000 37.500 237.500 37.500 L 125.000 37.500 125.000 100.000 M195.187 149.937 L 186.250 158.874 200.562 173.187 L 214.873 187.500 138.687 187.500 L 62.500 187.500 62.500 200.000 L 62.500 212.500 138.687 212.500 L 214.873 212.500 200.561 226.814 L 186.250 241.127 195.260 250.126 L 204.270 259.125 233.091 230.250 C 264.334 198.948,263.024 200.333,262.360 199.313 C 261.888 198.589,204.518 141.000,204.269 141.000 C 204.189 141.000,200.103 145.022,195.187 149.937 " stroke="none" fill="#000000" fill-rule="evenodd"></path><path id="path3" d="M125.000 100.000 L 125.000 162.500 137.500 162.500 L 150.000 162.500 150.000 112.500 L 150.000 62.500 237.500 62.500 L 325.000 62.500 325.000 200.000 L 325.000 337.500 237.500 337.500 L 150.000 337.500 150.000 287.500 L 150.000 237.500 137.500 237.500 L 125.000 237.500 125.000 300.000 L 125.000 362.500 237.500 362.500 L 350.000 362.500 350.000 200.000 L 350.000 37.500 237.500 37.500 L 125.000 37.500 125.000 100.000 M195.187 149.937 L 186.250 158.874 200.562 173.187 L 214.873 187.500 138.687 187.500 L 62.500 187.500 62.500 200.000 L 62.500 212.500 138.687 212.500 L 214.873 212.500 200.561 226.814 L 186.250 241.127 195.260 250.126 L 204.270 259.125 233.091 230.250 C 264.334 198.948,263.024 200.333,262.360 199.313 C 261.888 198.589,204.518 141.000,204.269 141.000 C 204.189 141.000,200.103 145.022,195.187 149.937 " stroke="none" fill="#000000" fill-rule="evenodd"></path><path id="path4" d="M125.000 100.000 L 125.000 162.500 137.500 162.500 L 150.000 162.500 150.000 112.500 L 150.000 62.500 237.500 62.500 L 325.000 62.500 325.000 200.000 L 325.000 337.500 237.500 337.500 L 150.000 337.500 150.000 287.500 L 150.000 237.500 137.500 237.500 L 125.000 237.500 125.000 300.000 L 125.000 362.500 237.500 362.500 L 350.000 362.500 350.000 200.000 L 350.000 37.500 237.500 37.500 L 125.000 37.500 125.000 100.000 M195.187 149.937 L 186.250 158.874 200.562 173.187 L 214.873 187.500 138.687 187.500 L 62.500 187.500 62.500 200.000 L 62.500 212.500 138.687 212.500 L 214.873 212.500 200.561 226.814 L 186.250 241.127 195.260 250.126 L 204.270 259.125 233.091 230.250 C 264.334 198.948,263.024 200.333,262.360 199.313 C 261.888 198.589,204.518 141.000,204.269 141.000 C 204.189 141.000,200.103 145.022,195.187 149.937 " stroke="none" fill="#000000" fill-rule="evenodd"></path></g></svg>