<svg id="svg" version="1.1" width="400" height="400" viewBox="0 0 400 400" xmlns="http://www.w3.org/2000/svg" xmlns:xlink="http://www.w3.org/1999/xlink" ><g id="svgg"><path id="path0" d="M50.000 200.000 L 50.000 362.500 118.750 362.500 L 187.500 362.500 187.500 337.500 L 187.500 312.500 200.000 312.500 L 212.500 312.500 212.500 337.500 L 212.500 362.500 281.250 362.500 L 350.000 362.500 350.000 200.000 L 350.000 37.500 200.000 37.500 L 50.000 37.500 50.000 200.000 M325.000 200.000 L 325.000 337.500 281.250 337.500 L 237.500 337.500 237.500 312.500 L 237.500 287.500 200.000 287.500 L 162.500 287.500 162.500 312.500 L 162.500 337.500 118.750 337.500 L 75.000 337.500 75.000 200.000 L 75.000 62.500 200.000 62.500 L 325.000 62.500 325.000 200.000 M100.000 100.000 L 100.000 112.500 125.000 112.500 L 150.000 112.500 150.000 100.000 L 150.000 87.500 125.000 87.500 L 100.000 87.500 100.000 100.000 M175.000 100.000 L 175.000 112.500 200.000 112.500 L 225.000 112.500 225.000 100.000 L 225.000 87.500 200.000 87.500 L 175.000 87.500 175.000 100.000 M250.000 100.000 L 250.000 112.500 275.000 112.500 L 300.000 112.500 300.000 100.000 L 300.000 87.500 275.000 87.500 L 250.000 87.500 250.000 100.000 M100.000 150.000 L 100.000 162.500 125.000 162.500 L 150.000 162.500 150.000 150.000 L 150.000 137.500 125.000 137.500 L 100.000 137.500 100.000 150.000 M175.000 150.000 L 175.000 162.500 200.000 162.500 L 225.000 162.500 225.000 150.000 L 225.000 137.500 200.000 137.500 L 175.000 137.500 175.000 150.000 M250.000 150.000 L 250.000 162.500 275.000 162.500 L 300.000 162.500 300.000 150.000 L 300.000 137.500 275.000 137.500 L 250.000 137.500 250.000 150.000 M100.000 200.000 L 100.000 212.500 125.000 212.500 L 150.000 212.500 150.000 200.000 L 150.000 187.500 125.000 187.500 L 100.000 187.500 100.000 200.000 M175.000 200.000 L 175.000 212.500 200.000 212.500 L 225.000 212.500 225.000 200.000 L 225.000 187.500 200.000 187.500 L 175.000 187.500 175.000 200.000 M250.000 200.000 L 250.000 212.500 275.000 212.500 L 300.000 212.500 300.000 200.000 L 300.000 187.500 275.000 187.500 L 250.000 187.500 250.000 200.000 M100.000 250.000 L 100.000 262.500 125.000 262.500 L 150.000 262.500 150.000 250.000 L 150.000 237.500 125.000 237.500 L 100.000 237.500 100.000 250.000 M175.000 250.000 L 175.000 262.500 200.000 262.500 L 225.000 262.500 225.000 250.000 L 225.000 237.500 200.000 237.500 L 175.000 237.500 175.000 250.000 M250.000 250.000 L 250.000 262.500 275.000 262.500 L 300.000 262.500 300.000 250.000 L 300.000 237.500 275.000 237.500 L 250.000 237.500 250.000 250.000 M100.000 300.000 L 100.000 312.500 125.000 312.500 L 150.000 312.500 150.000 300.000 L 150.000 287.500 125.000 287.500 L 100.000 287.500 100.000 300.000 M250.000 300.000 L 250.000 312.500 275.000 312.500 L 300.000 312.500 300.000 300.000 L 300.000 287.500 275.000 287.500 L 250.000 287.500 250.000 300.000 " stroke="none" fill="#000000" fill-rule="evenodd"></path></g></svg>