<svg id="svg" version="1.1" width="400" height="400" viewBox="0 0 400 400" xmlns="http://www.w3.org/2000/svg" xmlns:xlink="http://www.w3.org/1999/xlink" ><g id="svgg"><path id="path0" d="M193.375 37.653 C 150.898 41.908,119.269 71.984,113.086 114.000 C 112.720 116.486,112.650 119.847,112.568 138.853 L 112.472 160.831 109.590 163.840 C 62.804 212.674,63.560 290.014,111.292 337.974 C 149.354 376.219,206.745 385.926,254.875 362.261 C 330.833 324.912,348.770 224.755,290.410 163.840 L 287.528 160.831 287.432 138.853 C 287.329 115.066,287.359 115.661,285.858 107.960 C 279.206 73.845,251.341 45.951,217.125 39.155 C 210.617 37.862,198.767 37.113,193.375 37.653 M208.250 63.149 C 235.849 66.735,258.032 88.904,261.886 116.750 C 262.303 119.762,262.779 142.000,262.426 142.000 C 262.356 142.000,261.584 141.595,260.712 141.099 C 245.871 132.672,229.390 127.431,211.500 125.450 C 207.660 125.024,192.340 125.024,188.500 125.450 C 170.610 127.431,154.129 132.672,139.288 141.099 C 138.416 141.595,137.644 142.000,137.574 142.000 C 137.233 142.000,137.709 119.529,138.109 116.750 C 142.417 86.787,165.989 64.996,196.625 62.652 C 198.804 62.485,205.268 62.761,208.250 63.149 M209.375 150.516 C 256.131 155.086,293.257 190.952,299.109 237.203 C 307.161 300.844,254.539 355.370,190.750 349.483 C 130.959 343.965,89.770 287.628,102.389 228.625 C 112.884 179.553,159.353 145.626,209.375 150.516 M195.250 225.358 C 173.564 229.903,167.632 258.013,185.747 270.391 L 187.500 271.588 187.500 292.044 L 187.500 312.500 200.000 312.500 L 212.500 312.500 212.500 292.044 L 212.500 271.588 214.253 270.391 C 228.658 260.548,228.483 238.814,213.920 229.164 C 208.702 225.706,201.041 224.145,195.250 225.358 " stroke="none" fill="#000000" fill-rule="evenodd"></path><path id="path1" d="M193.375 37.653 C 150.898 41.908,119.269 71.984,113.086 114.000 C 112.720 116.486,112.650 119.847,112.568 138.853 L 112.472 160.831 109.590 163.840 C 62.804 212.674,63.560 290.014,111.292 337.974 C 149.354 376.219,206.745 385.926,254.875 362.261 C 330.833 324.912,348.770 224.755,290.410 163.840 L 287.528 160.831 287.432 138.853 C 287.329 115.066,287.359 115.661,285.858 107.960 C 279.206 73.845,251.341 45.951,217.125 39.155 C 210.617 37.862,198.767 37.113,193.375 37.653 M208.250 63.149 C 235.849 66.735,258.032 88.904,261.886 116.750 C 262.303 119.762,262.779 142.000,262.426 142.000 C 262.356 142.000,261.584 141.595,260.712 141.099 C 245.871 132.672,229.390 127.431,211.500 125.450 C 207.660 125.024,192.340 125.024,188.500 125.450 C 170.610 127.431,154.129 132.672,139.288 141.099 C 138.416 141.595,137.644 142.000,137.574 142.000 C 137.233 142.000,137.709 119.529,138.109 116.750 C 142.417 86.787,165.989 64.996,196.625 62.652 C 198.804 62.485,205.268 62.761,208.250 63.149 M209.375 150.516 C 256.131 155.086,293.257 190.952,299.109 237.203 C 307.161 300.844,254.539 355.370,190.750 349.483 C 130.959 343.965,89.770 287.628,102.389 228.625 C 112.884 179.553,159.353 145.626,209.375 150.516 M195.250 225.358 C 173.564 229.903,167.632 258.013,185.747 270.391 L 187.500 271.588 187.500 292.044 L 187.500 312.500 200.000 312.500 L 212.500 312.500 212.500 292.044 L 212.500 271.588 214.253 270.391 C 228.658 260.548,228.483 238.814,213.920 229.164 C 208.702 225.706,201.041 224.145,195.250 225.358 " stroke="none" fill="#000000" fill-rule="evenodd"></path><path id="path2" d="M193.375 37.653 C 150.898 41.908,119.269 71.984,113.086 114.000 C 112.720 116.486,112.650 119.847,112.568 138.853 L 112.472 160.831 109.590 163.840 C 62.804 212.674,63.560 290.014,111.292 337.974 C 149.354 376.219,206.745 385.926,254.875 362.261 C 330.833 324.912,348.770 224.755,290.410 163.840 L 287.528 160.831 287.432 138.853 C 287.329 115.066,287.359 115.661,285.858 107.960 C 279.206 73.845,251.341 45.951,217.125 39.155 C 210.617 37.862,198.767 37.113,193.375 37.653 M208.250 63.149 C 235.849 66.735,258.032 88.904,261.886 116.750 C 262.303 119.762,262.779 142.000,262.426 142.000 C 262.356 142.000,261.584 141.595,260.712 141.099 C 245.871 132.672,229.390 127.431,211.500 125.450 C 207.660 125.024,192.340 125.024,188.500 125.450 C 170.610 127.431,154.129 132.672,139.288 141.099 C 138.416 141.595,137.644 142.000,137.574 142.000 C 137.233 142.000,137.709 119.529,138.109 116.750 C 142.417 86.787,165.989 64.996,196.625 62.652 C 198.804 62.485,205.268 62.761,208.250 63.149 M209.375 150.516 C 256.131 155.086,293.257 190.952,299.109 237.203 C 307.161 300.844,254.539 355.370,190.750 349.483 C 130.959 343.965,89.770 287.628,102.389 228.625 C 112.884 179.553,159.353 145.626,209.375 150.516 M195.250 225.358 C 173.564 229.903,167.632 258.013,185.747 270.391 L 187.500 271.588 187.500 292.044 L 187.500 312.500 200.000 312.500 L 212.500 312.500 212.500 292.044 L 212.500 271.588 214.253 270.391 C 228.658 260.548,228.483 238.814,213.920 229.164 C 208.702 225.706,201.041 224.145,195.250 225.358 " stroke="none" fill="#000000" fill-rule="evenodd"></path><path id="path3" d="M193.375 37.653 C 150.898 41.908,119.269 71.984,113.086 114.000 C 112.720 116.486,112.650 119.847,112.568 138.853 L 112.472 160.831 109.590 163.840 C 62.804 212.674,63.560 290.014,111.292 337.974 C 149.354 376.219,206.745 385.926,254.875 362.261 C 330.833 324.912,348.770 224.755,290.410 163.840 L 287.528 160.831 287.432 138.853 C 287.329 115.066,287.359 115.661,285.858 107.960 C 279.206 73.845,251.341 45.951,217.125 39.155 C 210.617 37.862,198.767 37.113,193.375 37.653 M208.250 63.149 C 235.849 66.735,258.032 88.904,261.886 116.750 C 262.303 119.762,262.779 142.000,262.426 142.000 C 262.356 142.000,261.584 141.595,260.712 141.099 C 245.871 132.672,229.390 127.431,211.500 125.450 C 207.660 125.024,192.340 125.024,188.500 125.450 C 170.610 127.431,154.129 132.672,139.288 141.099 C 138.416 141.595,137.644 142.000,137.574 142.000 C 137.233 142.000,137.709 119.529,138.109 116.750 C 142.417 86.787,165.989 64.996,196.625 62.652 C 198.804 62.485,205.268 62.761,208.250 63.149 M209.375 150.516 C 256.131 155.086,293.257 190.952,299.109 237.203 C 307.161 300.844,254.539 355.370,190.750 349.483 C 130.959 343.965,89.770 287.628,102.389 228.625 C 112.884 179.553,159.353 145.626,209.375 150.516 M195.250 225.358 C 173.564 229.903,167.632 258.013,185.747 270.391 L 187.500 271.588 187.500 292.044 L 187.500 312.500 200.000 312.500 L 212.500 312.500 212.500 292.044 L 212.500 271.588 214.253 270.391 C 228.658 260.548,228.483 238.814,213.920 229.164 C 208.702 225.706,201.041 224.145,195.250 225.358 " stroke="none" fill="#000000" fill-rule="evenodd"></path><path id="path4" d="M193.375 37.653 C 150.898 41.908,119.269 71.984,113.086 114.000 C 112.720 116.486,112.650 119.847,112.568 138.853 L 112.472 160.831 109.590 163.840 C 62.804 212.674,63.560 290.014,111.292 337.974 C 149.354 376.219,206.745 385.926,254.875 362.261 C 330.833 324.912,348.770 224.755,290.410 163.840 L 287.528 160.831 287.432 138.853 C 287.329 115.066,287.359 115.661,285.858 107.960 C 279.206 73.845,251.341 45.951,217.125 39.155 C 210.617 37.862,198.767 37.113,193.375 37.653 M208.250 63.149 C 235.849 66.735,258.032 88.904,261.886 116.750 C 262.303 119.762,262.779 142.000,262.426 142.000 C 262.356 142.000,261.584 141.595,260.712 141.099 C 245.871 132.672,229.390 127.431,211.500 125.450 C 207.660 125.024,192.340 125.024,188.500 125.450 C 170.610 127.431,154.129 132.672,139.288 141.099 C 138.416 141.595,137.644 142.000,137.574 142.000 C 137.233 142.000,137.709 119.529,138.109 116.750 C 142.417 86.787,165.989 64.996,196.625 62.652 C 198.804 62.485,205.268 62.761,208.250 63.149 M209.375 150.516 C 256.131 155.086,293.257 190.952,299.109 237.203 C 307.161 300.844,254.539 355.370,190.750 349.483 C 130.959 343.965,89.770 287.628,102.389 228.625 C 112.884 179.553,159.353 145.626,209.375 150.516 M195.250 225.358 C 173.564 229.903,167.632 258.013,185.747 270.391 L 187.500 271.588 187.500 292.044 L 187.500 312.500 200.000 312.500 L 212.500 312.500 212.500 292.044 L 212.500 271.588 214.253 270.391 C 228.658 260.548,228.483 238.814,213.920 229.164 C 208.702 225.706,201.041 224.145,195.250 225.358 " stroke="none" fill="#000000" fill-rule="evenodd"></path></g></svg>