<svg id="svg" version="1.1" width="400" height="400" viewBox="0 0 400 400" xmlns="http://www.w3.org/2000/svg" xmlns:xlink="http://www.w3.org/1999/xlink" ><g id="svgg"><path id="path0" d="M37.500 137.498 L 37.500 237.497 56.497 237.561 L 75.494 237.625 71.184 240.872 C 62.169 247.666,50.597 257.208,42.877 264.215 C 40.947 265.966,32.500 274.746,32.500 275.000 C 32.500 275.370,42.189 285.268,45.831 288.618 C 59.994 301.648,76.977 314.792,93.444 325.467 C 139.380 355.246,180.800 366.826,220.500 360.989 C 247.101 357.078,276.496 344.938,306.625 325.420 C 328.808 311.050,352.716 291.453,365.925 276.813 L 367.560 275.002 366.618 273.938 C 359.130 265.486,344.498 252.694,328.692 240.780 L 324.506 237.625 343.503 237.561 L 362.500 237.497 362.500 137.498 L 362.500 37.500 200.000 37.500 L 37.500 37.500 37.500 137.498 M337.500 137.500 L 337.500 212.500 311.794 212.500 L 286.087 212.500 283.481 211.099 C 225.209 179.777,174.789 179.777,116.519 211.099 L 113.913 212.500 88.206 212.500 L 62.500 212.500 62.500 137.500 L 62.500 62.500 200.000 62.500 L 337.500 62.500 337.500 137.500 M120.250 112.858 C 98.933 117.325,92.721 144.416,110.000 157.560 C 118.582 164.088,131.418 164.088,140.000 157.560 C 156.644 144.899,151.559 118.769,131.375 113.239 C 128.830 112.542,122.753 112.334,120.250 112.858 M195.250 112.858 C 173.933 117.325,167.721 144.416,185.000 157.560 C 193.582 164.088,206.418 164.088,215.000 157.560 C 231.644 144.899,226.559 118.769,206.375 113.239 C 203.830 112.542,197.753 112.334,195.250 112.858 M270.250 112.858 C 248.933 117.325,242.721 144.416,260.000 157.560 C 268.582 164.088,281.418 164.088,290.000 157.560 C 306.644 144.899,301.559 118.769,281.375 113.239 C 278.830 112.542,272.753 112.334,270.250 112.858 M210.210 213.133 C 244.094 216.506,292.555 240.516,323.436 269.232 C 325.147 270.823,327.240 272.762,328.086 273.540 L 329.625 274.955 326.875 277.558 C 293.294 309.347,245.303 333.533,208.875 337.026 C 170.060 340.748,114.176 316.095,72.250 276.753 L 70.375 274.993 71.912 273.559 C 82.382 263.791,86.629 260.258,95.625 253.834 C 131.100 228.499,164.786 214.677,196.000 212.647 C 198.432 212.489,206.518 212.765,210.210 213.133 M194.081 225.258 C 163.081 229.151,143.088 259.794,152.116 289.579 C 162.197 322.837,202.412 335.820,230.293 314.818 C 246.492 302.616,253.764 281.044,248.129 261.905 L 247.696 260.436 246.994 261.719 C 238.924 276.477,219.222 279.399,207.411 267.589 C 195.701 255.879,198.476 236.214,212.971 228.180 L 214.556 227.302 213.090 226.870 C 207.786 225.308,199.365 224.594,194.081 225.258 " stroke="none" fill="#000000" fill-rule="evenodd"></path><path id="path1" d="M37.500 137.498 L 37.500 237.497 56.497 237.561 L 75.494 237.625 71.184 240.872 C 62.169 247.666,50.597 257.208,42.877 264.215 C 40.947 265.966,32.500 274.746,32.500 275.000 C 32.500 275.370,42.189 285.268,45.831 288.618 C 59.994 301.648,76.977 314.792,93.444 325.467 C 139.380 355.246,180.800 366.826,220.500 360.989 C 247.101 357.078,276.496 344.938,306.625 325.420 C 328.808 311.050,352.716 291.453,365.925 276.813 L 367.560 275.002 366.618 273.938 C 359.130 265.486,344.498 252.694,328.692 240.780 L 324.506 237.625 343.503 237.561 L 362.500 237.497 362.500 137.498 L 362.500 37.500 200.000 37.500 L 37.500 37.500 37.500 137.498 M337.500 137.500 L 337.500 212.500 311.794 212.500 L 286.087 212.500 283.481 211.099 C 225.209 179.777,174.789 179.777,116.519 211.099 L 113.913 212.500 88.206 212.500 L 62.500 212.500 62.500 137.500 L 62.500 62.500 200.000 62.500 L 337.500 62.500 337.500 137.500 M120.250 112.858 C 98.933 117.325,92.721 144.416,110.000 157.560 C 118.582 164.088,131.418 164.088,140.000 157.560 C 156.644 144.899,151.559 118.769,131.375 113.239 C 128.830 112.542,122.753 112.334,120.250 112.858 M195.250 112.858 C 173.933 117.325,167.721 144.416,185.000 157.560 C 193.582 164.088,206.418 164.088,215.000 157.560 C 231.644 144.899,226.559 118.769,206.375 113.239 C 203.830 112.542,197.753 112.334,195.250 112.858 M270.250 112.858 C 248.933 117.325,242.721 144.416,260.000 157.560 C 268.582 164.088,281.418 164.088,290.000 157.560 C 306.644 144.899,301.559 118.769,281.375 113.239 C 278.830 112.542,272.753 112.334,270.250 112.858 M210.210 213.133 C 244.094 216.506,292.555 240.516,323.436 269.232 C 325.147 270.823,327.240 272.762,328.086 273.540 L 329.625 274.955 326.875 277.558 C 293.294 309.347,245.303 333.533,208.875 337.026 C 170.060 340.748,114.176 316.095,72.250 276.753 L 70.375 274.993 71.912 273.559 C 82.382 263.791,86.629 260.258,95.625 253.834 C 131.100 228.499,164.786 214.677,196.000 212.647 C 198.432 212.489,206.518 212.765,210.210 213.133 M194.081 225.258 C 163.081 229.151,143.088 259.794,152.116 289.579 C 162.197 322.837,202.412 335.820,230.293 314.818 C 246.492 302.616,253.764 281.044,248.129 261.905 L 247.696 260.436 246.994 261.719 C 238.924 276.477,219.222 279.399,207.411 267.589 C 195.701 255.879,198.476 236.214,212.971 228.180 L 214.556 227.302 213.090 226.870 C 207.786 225.308,199.365 224.594,194.081 225.258 " stroke="none" fill="#000000" fill-rule="evenodd"></path><path id="path2" d="M37.500 137.498 L 37.500 237.497 56.497 237.561 L 75.494 237.625 71.184 240.872 C 62.169 247.666,50.597 257.208,42.877 264.215 C 40.947 265.966,32.500 274.746,32.500 275.000 C 32.500 275.370,42.189 285.268,45.831 288.618 C 59.994 301.648,76.977 314.792,93.444 325.467 C 139.380 355.246,180.800 366.826,220.500 360.989 C 247.101 357.078,276.496 344.938,306.625 325.420 C 328.808 311.050,352.716 291.453,365.925 276.813 L 367.560 275.002 366.618 273.938 C 359.130 265.486,344.498 252.694,328.692 240.780 L 324.506 237.625 343.503 237.561 L 362.500 237.497 362.500 137.498 L 362.500 37.500 200.000 37.500 L 37.500 37.500 37.500 137.498 M337.500 137.500 L 337.500 212.500 311.794 212.500 L 286.087 212.500 283.481 211.099 C 225.209 179.777,174.789 179.777,116.519 211.099 L 113.913 212.500 88.206 212.500 L 62.500 212.500 62.500 137.500 L 62.500 62.500 200.000 62.500 L 337.500 62.500 337.500 137.500 M120.250 112.858 C 98.933 117.325,92.721 144.416,110.000 157.560 C 118.582 164.088,131.418 164.088,140.000 157.560 C 156.644 144.899,151.559 118.769,131.375 113.239 C 128.830 112.542,122.753 112.334,120.250 112.858 M195.250 112.858 C 173.933 117.325,167.721 144.416,185.000 157.560 C 193.582 164.088,206.418 164.088,215.000 157.560 C 231.644 144.899,226.559 118.769,206.375 113.239 C 203.830 112.542,197.753 112.334,195.250 112.858 M270.250 112.858 C 248.933 117.325,242.721 144.416,260.000 157.560 C 268.582 164.088,281.418 164.088,290.000 157.560 C 306.644 144.899,301.559 118.769,281.375 113.239 C 278.830 112.542,272.753 112.334,270.250 112.858 M210.210 213.133 C 244.094 216.506,292.555 240.516,323.436 269.232 C 325.147 270.823,327.240 272.762,328.086 273.540 L 329.625 274.955 326.875 277.558 C 293.294 309.347,245.303 333.533,208.875 337.026 C 170.060 340.748,114.176 316.095,72.250 276.753 L 70.375 274.993 71.912 273.559 C 82.382 263.791,86.629 260.258,95.625 253.834 C 131.100 228.499,164.786 214.677,196.000 212.647 C 198.432 212.489,206.518 212.765,210.210 213.133 M194.081 225.258 C 163.081 229.151,143.088 259.794,152.116 289.579 C 162.197 322.837,202.412 335.820,230.293 314.818 C 246.492 302.616,253.764 281.044,248.129 261.905 L 247.696 260.436 246.994 261.719 C 238.924 276.477,219.222 279.399,207.411 267.589 C 195.701 255.879,198.476 236.214,212.971 228.180 L 214.556 227.302 213.090 226.870 C 207.786 225.308,199.365 224.594,194.081 225.258 " stroke="none" fill="#000000" fill-rule="evenodd"></path><path id="path3" d="M37.500 137.498 L 37.500 237.497 56.497 237.561 L 75.494 237.625 71.184 240.872 C 62.169 247.666,50.597 257.208,42.877 264.215 C 40.947 265.966,32.500 274.746,32.500 275.000 C 32.500 275.370,42.189 285.268,45.831 288.618 C 59.994 301.648,76.977 314.792,93.444 325.467 C 139.380 355.246,180.800 366.826,220.500 360.989 C 247.101 357.078,276.496 344.938,306.625 325.420 C 328.808 311.050,352.716 291.453,365.925 276.813 L 367.560 275.002 366.618 273.938 C 359.130 265.486,344.498 252.694,328.692 240.780 L 324.506 237.625 343.503 237.561 L 362.500 237.497 362.500 137.498 L 362.500 37.500 200.000 37.500 L 37.500 37.500 37.500 137.498 M337.500 137.500 L 337.500 212.500 311.794 212.500 L 286.087 212.500 283.481 211.099 C 225.209 179.777,174.789 179.777,116.519 211.099 L 113.913 212.500 88.206 212.500 L 62.500 212.500 62.500 137.500 L 62.500 62.500 200.000 62.500 L 337.500 62.500 337.500 137.500 M120.250 112.858 C 98.933 117.325,92.721 144.416,110.000 157.560 C 118.582 164.088,131.418 164.088,140.000 157.560 C 156.644 144.899,151.559 118.769,131.375 113.239 C 128.830 112.542,122.753 112.334,120.250 112.858 M195.250 112.858 C 173.933 117.325,167.721 144.416,185.000 157.560 C 193.582 164.088,206.418 164.088,215.000 157.560 C 231.644 144.899,226.559 118.769,206.375 113.239 C 203.830 112.542,197.753 112.334,195.250 112.858 M270.250 112.858 C 248.933 117.325,242.721 144.416,260.000 157.560 C 268.582 164.088,281.418 164.088,290.000 157.560 C 306.644 144.899,301.559 118.769,281.375 113.239 C 278.830 112.542,272.753 112.334,270.250 112.858 M210.210 213.133 C 244.094 216.506,292.555 240.516,323.436 269.232 C 325.147 270.823,327.240 272.762,328.086 273.540 L 329.625 274.955 326.875 277.558 C 293.294 309.347,245.303 333.533,208.875 337.026 C 170.060 340.748,114.176 316.095,72.250 276.753 L 70.375 274.993 71.912 273.559 C 82.382 263.791,86.629 260.258,95.625 253.834 C 131.100 228.499,164.786 214.677,196.000 212.647 C 198.432 212.489,206.518 212.765,210.210 213.133 M194.081 225.258 C 163.081 229.151,143.088 259.794,152.116 289.579 C 162.197 322.837,202.412 335.820,230.293 314.818 C 246.492 302.616,253.764 281.044,248.129 261.905 L 247.696 260.436 246.994 261.719 C 238.924 276.477,219.222 279.399,207.411 267.589 C 195.701 255.879,198.476 236.214,212.971 228.180 L 214.556 227.302 213.090 226.870 C 207.786 225.308,199.365 224.594,194.081 225.258 " stroke="none" fill="#000000" fill-rule="evenodd"></path><path id="path4" d="M37.500 137.498 L 37.500 237.497 56.497 237.561 L 75.494 237.625 71.184 240.872 C 62.169 247.666,50.597 257.208,42.877 264.215 C 40.947 265.966,32.500 274.746,32.500 275.000 C 32.500 275.370,42.189 285.268,45.831 288.618 C 59.994 301.648,76.977 314.792,93.444 325.467 C 139.380 355.246,180.800 366.826,220.500 360.989 C 247.101 357.078,276.496 344.938,306.625 325.420 C 328.808 311.050,352.716 291.453,365.925 276.813 L 367.560 275.002 366.618 273.938 C 359.130 265.486,344.498 252.694,328.692 240.780 L 324.506 237.625 343.503 237.561 L 362.500 237.497 362.500 137.498 L 362.500 37.500 200.000 37.500 L 37.500 37.500 37.500 137.498 M337.500 137.500 L 337.500 212.500 311.794 212.500 L 286.087 212.500 283.481 211.099 C 225.209 179.777,174.789 179.777,116.519 211.099 L 113.913 212.500 88.206 212.500 L 62.500 212.500 62.500 137.500 L 62.500 62.500 200.000 62.500 L 337.500 62.500 337.500 137.500 M120.250 112.858 C 98.933 117.325,92.721 144.416,110.000 157.560 C 118.582 164.088,131.418 164.088,140.000 157.560 C 156.644 144.899,151.559 118.769,131.375 113.239 C 128.830 112.542,122.753 112.334,120.250 112.858 M195.250 112.858 C 173.933 117.325,167.721 144.416,185.000 157.560 C 193.582 164.088,206.418 164.088,215.000 157.560 C 231.644 144.899,226.559 118.769,206.375 113.239 C 203.830 112.542,197.753 112.334,195.250 112.858 M270.250 112.858 C 248.933 117.325,242.721 144.416,260.000 157.560 C 268.582 164.088,281.418 164.088,290.000 157.560 C 306.644 144.899,301.559 118.769,281.375 113.239 C 278.830 112.542,272.753 112.334,270.250 112.858 M210.210 213.133 C 244.094 216.506,292.555 240.516,323.436 269.232 C 325.147 270.823,327.240 272.762,328.086 273.540 L 329.625 274.955 326.875 277.558 C 293.294 309.347,245.303 333.533,208.875 337.026 C 170.060 340.748,114.176 316.095,72.250 276.753 L 70.375 274.993 71.912 273.559 C 82.382 263.791,86.629 260.258,95.625 253.834 C 131.100 228.499,164.786 214.677,196.000 212.647 C 198.432 212.489,206.518 212.765,210.210 213.133 M194.081 225.258 C 163.081 229.151,143.088 259.794,152.116 289.579 C 162.197 322.837,202.412 335.820,230.293 314.818 C 246.492 302.616,253.764 281.044,248.129 261.905 L 247.696 260.436 246.994 261.719 C 238.924 276.477,219.222 279.399,207.411 267.589 C 195.701 255.879,198.476 236.214,212.971 228.180 L 214.556 227.302 213.090 226.870 C 207.786 225.308,199.365 224.594,194.081 225.258 " stroke="none" fill="#000000" fill-rule="evenodd"></path></g></svg>